<?xml version="1.0" standalone="yes"?><!DOCTYPE svg PUBLIC "-//W3C//DTD SVG 1.1//EN" "http://www.w3.org/Graphics/SVG/1.1/DTD/svg11.dtd"><svg width="1176px" height="588px" viewBox="0 0 1176 588" xmlns="http://www.w3.org/2000/svg" version="1.1"><path d="M750,245.34375 L749,244.34375 Q748,243.34375 714,245.34375 Q680,247.34375 662,248.34375 Q644,249.34375 179,255.34375 Q-286,261.34375 -272,263.34375 Q-258,265.34375 -229,262.34375 Q-200,259.34375 -153,256.34375 Q-106,253.34375 -28,245.34375 Q50,237.34375 149,231.34375 Q248,225.34375 358,234.34375 Q468,243.34375 571,254.34375 Q674,265.34375 756,281.34375 Q838,297.34375 849,301.34375 Q860,305.34375 859,305.34375 Q858,305.34375 844,311.34375 Q830,317.34375 780,326.34375 Q730,335.34375 703,339.34375 Q676,343.34375 587,350.34375 Q498,357.34375 440,358.34375 Q382,359.34375 346,360.34375 Q310,361.34375 291,361.34375 Q272,361.34375 268,361.34375 L264,361.34375 L265,361.34375 Q266,361.34375 275,360.34375 Q284,359.34375 306,355.34375 Q328,351.34375 499,367.34375 Q670,383.34375 660,388.34375 Q650,393.34375 603,407.34375 Q556,421.34375 472,444.34375 Q388,467.34375 296,476.34375 Q204,485.34375 130,486.34375 Q56,487.34375 17,480.34375 Q-22,473.34375 -45,468.34375 Q-68,463.34375 -70,463.34375 L-72,463.34375 L-70,463.34375 Q-68,463.34375 -53,459.34375 Q-38,455.34375 -9,448.34375 Q20,441.34375 78,432.34375 Q136,423.34375 202,411.34375 Q268,399.34375 361,397.34375 Q454,395.34375 486,396.34375 Q518,397.34375 527,399.34375 L536,401.34375 L530,401.34375 Q524,401.34375 493,403.34375 Q462,405.34375 399,406.34375 Q336,407.34375 265,409.34375 Q194,411.34375 22,368.34375 L-150,325.34375 L-88,327.34375 Q-26,329.34375 36,336.34375 Q98,343.34375 162,356.34375 Q226,369.34375 277,382.34375 Q328,395.34375 346,398.34375 Q364,401.34375 364,401.34375 Q364,401.34375 358,401.34375 Q352,401.34375 282,404.34375 Q212,407.34375 140,403.34375 Q68,399.34375 4,394.34375 Q-60,389.34375 -106,385.34375 Q-152,381.34375 -174,374.34375 Q-196,367.34375 -199,366.34375 L-202,365.34375 L-196,366.34375 Q-190,367.34375 -167,369.34375 Q-144,371.34375 -100,370.34375 Q-56,369.34375 13,373.34375 Q82,377.34375 167,390.34375 Q252,403.34375 324,410.34375 Q396,417.34375 435,423.34375 Q474,429.34375 485,432.34375 L496,435.34375 L494,435.34375 Q492,435.34375 478,441.34375 Q464,447.34375 442,453.34375 Q420,459.34375 386,468.34375 Q352,477.34375 277,502.34375 Q202,527.34375 167,531.34375 Q132,535.34375 106,539.34375 Q80,543.34375 63,545.34375 Q46,547.34375 39,547.34375 Q32,547.34375 29,548.34375 L26,549.34375 L26,550.34375 Q26,551.34375 34,551.34375 Q42,551.34375 68,550.34375 Q94,549.34375 141,546.34375 Q188,543.34375 256,544.34375 Q324,545.34375 450,543.34375 Q576,541.34375 665,548.34375 Q754,555.34375 832,564.34375 Q910,573.34375 960,582.34375 Q1010,591.34375 1039,593.34375 Q1068,595.34375 1082,596.34375 Q1096,597.34375 1099,597.34375 L1102,597.34375 L1103,597.34375 Q1104,597.34375 1096,602.34375 Q1088,607.34375 1068,611.34375 Q1048,615.34375 985,616.34375 Q922,617.34375 851,617.34375 Q780,617.34375 691,609.34375 Q602,601.34375 506,578.34375 Q410,555.34375 320,544.34375 Q230,533.34375 160,522.34375 Q90,511.34375 78,508.34375 L66,505.34375 L68,505.34375 Q70,505.34375 92,504.34375 Q114,503.34375 167,504.34375 Q220,505.34375 306,499.34375 Q392,493.34375 494,496.34375 Q596,499.34375 699,501.34375 Q802,503.34375 925,517.34375 Q1048,531.34375 1093,534.34375 Q1138,537.34375 1154,539.34375 Q1170,541.34375 1173,542.34375 L1176,543.34375 L1170,541.34375 Q1164,539.34375 1148,538.34375 Q1132,537.34375 1089,533.34375 Q1046,529.34375 967,515.34375 Q888,501.34375 799,490.34375 Q710,479.34375 628,466.34375 Q546,453.34375 493,442.34375 Q440,431.34375 414,423.34375 Q388,415.34375 390,415.34375 Q392,415.34375 428,418.34375 Q464,421.34375 566,433.34375 Q668,445.34375 801,449.34375 Q934,453.34375 1060,465.34375 Q1186,477.34375 1270,488.34375 Q1354,499.34375 1399,504.34375 Q1444,509.34375 1448,510.34375 L1452,511.34375 L1439,511.34375 Q1426,511.34375 1397,511.34375 Q1368,511.34375 1325,508.34375 Q1282,505.34375 1174,496.34375 Q1066,487.34375 985,476.34375 Q904,465.34375 841,455.34375 Q778,445.34375 754,442.34375 Q730,439.34375 725,438.34375 L720,437.34375 L721,437.34375 Q722,437.34375 985,445.34375 Q1248,453.34375 1265,453.34375 Q1282,453.34375 1302,454.34375 Q1322,455.34375 1326,456.34375 L1330,457.34375 L1328,457.34375 Q1326,457.34375 1312,456.34375 Q1298,455.34375 1270,453.34375 Q1242,451.34375 1177,435.34375 Q1112,419.34375 1025,403.34375 Q938,387.34375 856,374.34375 Q774,361.34375 711,342.34375 Q648,323.34375 623,314.34375 Q598,305.34375 596,303.34375 Q594,301.34375 608,298.34375 Q622,295.34375 663,293.34375 Q704,291.34375 770,294.34375 Q836,297.34375 905,300.34375 Q974,303.34375 1027,306.34375 Q1080,309.34375 1104,310.34375 Q1128,311.34375 1136,311.34375 Q1144,311.34375 1145,311.34375 L1146,311.34375 L1144,311.34375 Q1142,311.34375 1130,311.34375 Q1118,311.34375 1092,307.34375 Q1066,303.34375 1006,295.34375 Q946,287.34375 840,266.34375 Q734,245.34375 687,237.34375 Q640,229.34375 620,224.34375 Q600,219.34375 598,218.34375 L596,217.34375 L602,216.34375 Q608,215.34375 638,212.34375 Q668,209.34375 735,215.34375 Q802,221.34375 934,231.34375 Q1066,241.34375 1146,253.34375 Q1226,265.34375 1263,274.34375 Q1300,283.34375 1311,285.34375 Q1322,287.34375 1323,287.34375 Q1324,287.34375 1314,286.34375 Q1304,285.34375 1283,283.34375 Q1262,281.34375 1219,272.34375 Q1176,263.34375 1096,247.34375 Q1016,231.34375 926,216.34375 Q836,201.34375 755,177.34375 Q674,153.34375 627,146.34375 Q580,139.34375 562,137.34375 Q544,135.34375 544,134.34375 Q544,133.34375 555,131.34375 Q566,129.34375 611,126.34375 Q656,123.34375 731,129.34375 Q806,135.34375 894,143.34375 Q982,151.34375 1063,162.34375 Q1144,173.34375 1192,175.34375 Q1240,177.34375 1269,182.34375 Q1298,187.34375 1299,187.34375 L1300,187.34375 L1298,186.34375 Q1296,185.34375 1284,184.34375 Q1272,183.34375 1251,179.34375 Q1230,175.34375 1159,168.34375 Q1088,161.34375 1037,155.34375 Q986,149.34375 945,143.34375 Q904,137.34375 882,132.34375 Q860,127.34375 854,126.34375 L848,125.34375 L853,122.34375 Q858,119.34375 874,116.34375 Q890,113.34375 917,111.34375 Q944,109.34375 995,110.34375 Q1046,111.34375 1060,112.34375 Q1074,113.34375 1096,115.34375 Q1118,117.34375 1130,118.34375 Q1142,119.34375 1151,119.34375 Q1160,119.34375 1164,118.34375 Q1168,117.34375 1172,116.34375 Q1176,115.34375 1184,113.34375 Q1192,111.34375 1197,109.34375 Q1202,107.34375 1205,106.34375 Q1208,105.34375 1209,104.34375 L1210,103.34375 L1211,101.34375 L1212,99.34375 L1212,98.34375 L1212,97.34375 L1212,96.34375 L1212,95.34375 L1212,94.34375 L1212,93.34375 L1213,92.34375 L1214,91.34375 L1214,90.34375 L1214,89.34375 L1214,88.34375 L1214,87.34375 L1214,85.34375 L1214,83.34375 L1215,82.34375 L1216,81.34375 L1216,80.34375 L1216,79.34375 L1216,77.34375 L1216,75.34375 L1216,74.34375 L1216,73.34375 L1216,72.34375 L1216,71.34375 L1215,69.34375 L1214,67.34375 L1213,66.34375 L1212,65.34375 L1211,64.34375 L1210,63.34375 L1209,61.34375 Q1208,59.34375 1206,58.34375 L1204,57.34375 L1203,56.34375 Q1202,55.34375 1198,54.34375 Q1194,53.34375 1187,50.34375 Q1180,47.34375 1173,46.34375 Q1166,45.34375 1154,44.34375 Q1142,43.34375 1127,41.34375 Q1112,39.34375 1095,37.34375 Q1078,35.34375 1055,35.34375 Q1032,35.34375 988,34.34375 Q944,33.34375 915,31.34375 Q886,29.34375 857,28.34375 Q828,27.34375 802,27.34375 Q776,27.34375 749,27.34375 Q722,27.34375 698,26.34375 Q674,25.34375 650,23.34375 Q626,21.34375 604,19.34375 Q582,17.34375 554,14.34375 Q526,11.34375 507,9.34375 Q488,7.34375 472,6.34375 Q456,5.34375 443,5.34375 Q430,5.34375 420,5.34375 Q410,5.34375 400,5.34375 Q390,5.34375 379,7.34375 Q368,9.34375 351,12.34375 Q334,15.34375 320,16.34375 Q306,17.34375 293,17.34375 Q280,17.34375 266,17.34375 Q252,17.34375 239,18.34375 Q226,19.34375 214,20.34375 Q202,21.34375 185,21.34375 Q168,21.34375 157,22.34375 Q146,23.34375 135,24.34375 Q124,25.34375 111,26.34375 Q98,27.34375 83,29.34375 Q68,31.34375 51,33.34375 Q34,35.34375 18,35.34375 Q2,35.34375 -11,35.34375 Q-24,35.34375 -38,34.34375 Q-52,33.34375 -57,33.34375 Q-62,33.34375 -68,33.34375 Q-74,33.34375 -80,34.34375 Q-86,35.34375 -91,36.34375 Q-96,37.34375 -100,38.34375 Q-104,39.34375 -106,41.34375 L-108,43.34375 L-97,42.34375 Q-86,41.34375 -60,42.34375 Q-34,43.34375 5,45.34375 Q44,47.34375 129,45.34375 Q214,43.34375 272,43.34375 Q330,43.34375 381,50.34375 Q432,57.34375 480,59.34375 Q528,61.34375 563,65.34375 Q598,69.34375 620,73.34375 Q642,77.34375 653,79.34375 L664,81.34375 L661,81.34375 Q658,81.34375 634,84.34375 Q610,87.34375 561,91.34375 Q512,95.34375 451,100.34375 Q390,105.34375 332,105.34375 Q274,105.34375 220,105.34375 Q166,105.34375 122,105.34375 Q78,105.34375 44,106.34375 Q10,107.34375 2,109.34375 Q-6,111.34375 -7,111.34375 L-8,111.34375 L-8,112.34375 Q-8,113.34375 5,113.34375 Q18,113.34375 42,116.34375 Q66,119.34375 90,122.34375 Q114,125.34375 142,128.34375 Q170,131.34375 197,133.34375 Q224,135.34375 251,138.34375 Q278,141.34375 311,142.34375 Q344,143.34375 363,143.34375 Q382,143.34375 399,143.34375 Q416,143.34375 432,144.34375 Q448,145.34375 461,147.34375 Q474,149.34375 483,150.34375 Q492,151.34375 493,152.34375 Q494,153.34375 497,154.34375 Q500,155.34375 506,156.34375 Q512,157.34375 518,159.34375 Q524,161.34375 530,163.34375 Q536,165.34375 538,165.34375 Q540,165.34375 542,167.34375 Q544,169.34375 546,170.34375 L548,171.34375 L549,172.34375 L550,173.34375 " fill="none" stroke="rgb(0, 0, 0)" stroke-opacity="0.8" stroke-width="140" stroke-linecap="round" stroke-linejoin="round" /><path d="M176,251.34375 L176,250.34375 L176,249.34375 L176,247.34375 L176,245.34375 L177,244.34375 L178,243.34375 L179,242.34375 L180,241.34375 L181,239.34375 L182,237.34375 L183,236.34375 L184,235.34375 L185,234.34375 Q186,233.34375 188,231.34375 L190,229.34375 L190,228.34375 L190,227.34375 L191,225.34375 Q192,223.34375 194,222.34375 Q196,221.34375 197,219.34375 Q198,217.34375 199,215.34375 Q200,213.34375 202,212.34375 Q204,211.34375 205,209.34375 L206,207.34375 L207,206.34375 L208,205.34375 L208,204.34375 L208,203.34375 L209,202.34375 L210,201.34375 L210,200.34375 L210,199.34375 L211,197.34375 L212,195.34375 L213,194.34375 L214,193.34375 L214,192.34375 L214,191.34375 L214,189.34375 L214,187.34375 L214,186.34375 L214,185.34375 L215,183.34375 L216,181.34375 L216,180.34375 L216,179.34375 L216,178.34375 L216,177.34375 L216,176.34375 L216,175.34375 L216,173.34375 L216,171.34375 L216,170.34375 L216,169.34375 L216,168.34375 L216,167.34375 L215,165.34375 L214,163.34375 L213,162.34375 L212,161.34375 L211,161.34375 L210,161.34375 L210,164.34375 Q210,167.34375 209,170.34375 L208,173.34375 L208,174.34375 L208,175.34375 L208,176.34375 L208,177.34375 L207,178.34375 L206,179.34375 L206,180.34375 L206,181.34375 L206,183.34375 L206,185.34375 L206,186.34375 L206,187.34375 L205,188.34375 L204,189.34375 L204,191.34375 L204,193.34375 L204,195.34375 L204,197.34375 L204,199.34375 L204,201.34375 L203,203.34375 Q202,205.34375 202,208.34375 L202,211.34375 L202,212.34375 L202,213.34375 L202,214.34375 L202,215.34375 L202,216.34375 L202,217.34375 L202,219.34375 L202,221.34375 L201,223.34375 Q200,225.34375 199,227.34375 L198,229.34375 L198,231.34375 L198,233.34375 L197,235.34375 L196,237.34375 L196,238.34375 L196,239.34375 L196,241.34375 L196,243.34375 L196,244.34375 L196,245.34375 L196,246.34375 L196,247.34375 L196,248.34375 L196,249.34375 L196,250.34375 L196,251.34375 L196,252.34375 L196,253.34375 L196,254.34375 L196,255.34375 L198,256.34375 L200,257.34375 L201,258.34375 L202,259.34375 L202,260.34375 L202,261.34375 L203,262.34375 L204,263.34375 L206,263.34375 L208,263.34375 L209,263.34375 L210,263.34375 L211,263.34375 L212,263.34375 L214,262.34375 L216,261.34375 L217,260.34375 Q218,259.34375 220,256.34375 Q222,253.34375 223,251.34375 Q224,249.34375 225,247.34375 L226,245.34375 L227,244.34375 L228,243.34375 L229,242.34375 L230,241.34375 L231,240.34375 L232,239.34375 L233,237.34375 L234,235.34375 L234,234.34375 L234,233.34375 L234,232.34375 L234,231.34375 L234,230.34375 L234,229.34375 L234,228.34375 L234,227.34375 L234,226.34375 L234,225.34375 L234,224.34375 L234,223.34375 L234,222.34375 L234,221.34375 L234,220.34375 L234,219.34375 L234,220.34375 L234,221.34375 L234,225.34375 Q234,229.34375 233,232.34375 Q232,235.34375 231,239.34375 Q230,243.34375 230,245.34375 L230,247.34375 L230,250.34375 L230,253.34375 L230,254.34375 L230,255.34375 L230,256.34375 L230,257.34375 L231,258.34375 L232,259.34375 L233,259.34375 L234,259.34375 L235,260.34375 L236,261.34375 L237,261.34375 L238,261.34375 L239,262.34375 L240,263.34375 L241,263.34375 L242,263.34375 L243,263.34375 L244,263.34375 L245,263.34375 L246,263.34375 L248,263.34375 L250,263.34375 L251,263.34375 L252,263.34375 L253,262.34375 L254,261.34375 L255,260.34375 L256,259.34375 L258,258.34375 L260,257.34375 L260,256.34375 L260,255.34375 L261,254.34375 L262,253.34375 L262,251.34375 L262,249.34375 L263,248.34375 L264,247.34375 L264,246.34375 L264,245.34375 L264,243.34375 L264,241.34375 L264,240.34375 L264,239.34375 L264,238.34375 L264,237.34375 L264,235.34375 L264,233.34375 L264,232.34375 L264,231.34375 L264,230.34375 L264,229.34375 L264,228.34375 L264,227.34375 L264,226.34375 L264,225.34375 L264,224.34375 L264,223.34375 L263,222.34375 L262,221.34375 L262,220.34375 L262,219.34375 L261,217.34375 L260,215.34375 L259,214.34375 L258,213.34375 L258,212.34375 L258,211.34375 L257,211.34375 L256,211.34375 L255,210.34375 L254,209.34375 L254,208.34375 L254,207.34375 L252,206.34375 L250,205.34375 L249,204.34375 L248,203.34375 L247,203.34375 L246,203.34375 L244,203.34375 L242,203.34375 L241,203.34375 L240,203.34375 L239,203.34375 L238,203.34375 " fill="none" stroke="rgb(255, 204, 204)" stroke-opacity="1" stroke-width="8.842105263157896" stroke-linecap="round" stroke-linejoin="round" /><path d="M282,223.34375 L282,224.34375 L282,225.34375 L282,227.34375 L282,229.34375 L283,230.34375 L284,231.34375 L284,232.34375 L284,233.34375 L284,234.34375 L284,235.34375 L284,236.34375 L284,237.34375 L284,238.34375 L284,239.34375 L284,240.34375 L284,241.34375 L284,242.34375 L284,243.34375 L284,244.34375 L284,245.34375 L285,245.34375 L286,245.34375 L286,246.34375 L286,247.34375 L287,248.34375 L288,249.34375 L288,250.34375 L288,251.34375 L289,251.34375 L290,251.34375 L291,252.34375 L292,253.34375 L293,253.34375 L294,253.34375 L295,253.34375 L296,253.34375 L297,253.34375 L298,253.34375 L299,253.34375 L300,253.34375 L302,253.34375 L304,253.34375 L305,253.34375 L306,253.34375 L307,253.34375 L308,253.34375 L308,252.34375 L308,251.34375 L308,250.34375 L308,249.34375 L309,248.34375 L310,247.34375 L310,246.34375 L310,245.34375 L311,244.34375 L312,243.34375 L312,242.34375 L312,241.34375 L312,240.34375 L312,239.34375 L313,238.34375 L314,237.34375 L314,235.34375 L314,233.34375 L314,232.34375 L314,231.34375 L314,230.34375 L314,229.34375 L314,227.34375 L314,225.34375 L314,224.34375 L314,223.34375 L314,222.34375 L314,221.34375 L314,220.34375 L314,219.34375 L314,218.34375 L314,217.34375 L314,216.34375 L314,215.34375 L314,214.34375 L314,213.34375 L314,212.34375 L314,211.34375 L314,209.34375 L314,207.34375 L314,206.34375 L314,205.34375 L314,204.34375 L314,203.34375 L314,202.34375 L314,201.34375 L313,200.34375 L312,199.34375 L311,198.34375 L310,197.34375 L308,197.34375 L306,197.34375 L305,196.34375 L304,195.34375 L303,195.34375 L302,195.34375 L301,195.34375 L300,195.34375 L299,195.34375 L298,195.34375 L297,195.34375 L296,195.34375 L295,195.34375 L294,195.34375 L293,195.34375 L292,195.34375 L292,196.34375 L292,197.34375 L291,199.34375 L290,201.34375 L290,202.34375 L290,203.34375 L290,204.34375 L290,205.34375 L290,207.34375 L290,209.34375 L290,210.34375 L290,211.34375 L290,212.34375 L290,213.34375 " fill="none" stroke="rgb(255, 204, 204)" stroke-opacity="1" stroke-width="8.842105263157896" stroke-linecap="round" stroke-linejoin="round" /><path d="M346,149.34375 L346,150.34375 L346,151.34375 L346,152.34375 L346,153.34375 L346,154.34375 L346,155.34375 L346,158.34375 L346,161.34375 L346,163.34375 L346,165.34375 L346,166.34375 L346,167.34375 L346,168.34375 L346,169.34375 L346,170.34375 L346,171.34375 L346,172.34375 L346,173.34375 L345,174.34375 L344,175.34375 L343,177.34375 L342,179.34375 L342,180.34375 L342,181.34375 L342,182.34375 L342,183.34375 L342,184.34375 L342,185.34375 L342,186.34375 L342,187.34375 L342,189.34375 L342,191.34375 L342,192.34375 L342,193.34375 L342,195.34375 L342,197.34375 L343,199.34375 L344,201.34375 L344,202.34375 L344,203.34375 L344,204.34375 L344,205.34375 L344,206.34375 L344,207.34375 L344,208.34375 L344,209.34375 L345,211.34375 L346,213.34375 L346,214.34375 L346,215.34375 L346,216.34375 L346,217.34375 L346,219.34375 L346,221.34375 L346,222.34375 L346,223.34375 L346,224.34375 L346,225.34375 L346,227.34375 L346,229.34375 L346,230.34375 L346,231.34375 L346,232.34375 L346,233.34375 L347,234.34375 L348,235.34375 L348,236.34375 L348,237.34375 L348,238.34375 L348,239.34375 L348,240.34375 L348,241.34375 L348,243.34375 L348,245.34375 L348,246.34375 L348,247.34375 L348,248.34375 L348,249.34375 L348,250.34375 L348,251.34375 L348,252.34375 L348,253.34375 L348,254.34375 L348,255.34375 L348,256.34375 L348,257.34375 L348,258.34375 L348,259.34375 L348,260.34375 L348,261.34375 L348,262.34375 L348,263.34375 L349,262.34375 L350,261.34375 L350,260.34375 L350,259.34375 L351,256.34375 Q352,253.34375 353,251.34375 L354,249.34375 L354,247.34375 L354,245.34375 L354,243.34375 L354,241.34375 L355,240.34375 L356,239.34375 L356,238.34375 L356,237.34375 L357,236.34375 L358,235.34375 L359,233.34375 L360,231.34375 L361,230.34375 L362,229.34375 L362,228.34375 L362,227.34375 L363,226.34375 L364,225.34375 L364,223.34375 L364,221.34375 L366,220.34375 L368,219.34375 L368,218.34375 L368,217.34375 L369,215.34375 L370,213.34375 L370,212.34375 L370,211.34375 L370,210.34375 L370,209.34375 L370,208.34375 L370,207.34375 L370,206.34375 L370,205.34375 L370,207.34375 Q370,209.34375 368,211.34375 Q366,213.34375 365,215.34375 L364,217.34375 L363,218.34375 L362,219.34375 L362,220.34375 L362,221.34375 L361,222.34375 L360,223.34375 L359,225.34375 L358,227.34375 L357,228.34375 L356,229.34375 L356,230.34375 L356,231.34375 L355,233.34375 L354,235.34375 L354,236.34375 L354,237.34375 L355,237.34375 L356,237.34375 L357,237.34375 L358,237.34375 L359,237.34375 L360,237.34375 L361,237.34375 L362,237.34375 L363,237.34375 L364,237.34375 L366,237.34375 L368,237.34375 L368,238.34375 L368,239.34375 L369,240.34375 Q370,241.34375 372,243.34375 L374,245.34375 L374,246.34375 L374,247.34375 L376,248.34375 L378,249.34375 L378,250.34375 L378,251.34375 L379,252.34375 L380,253.34375 L381,254.34375 L382,255.34375 L382,256.34375 L382,257.34375 L383,257.34375 L384,257.34375 L385,257.34375 L386,257.34375 L386,258.34375 L386,259.34375 L387,259.34375 L388,259.34375 L389,259.34375 L390,259.34375 L391,259.34375 L392,259.34375 L393,259.34375 L394,259.34375 L395,258.34375 L396,257.34375 L397,257.34375 L398,257.34375 L398,256.34375 L398,255.34375 L399,255.34375 L400,255.34375 L401,255.34375 L402,255.34375 L402,254.34375 L402,253.34375 L403,253.34375 L404,253.34375 L404,252.34375 L404,251.34375 L404,250.34375 L404,249.34375 " fill="none" stroke="rgb(255, 204, 204)" stroke-opacity="1" stroke-width="8.842105263157896" stroke-linecap="round" stroke-linejoin="round" /><path d="M584,221.34375 L584,222.34375 L584,223.34375 L584,224.34375 L584,225.34375 L584,226.34375 L584,227.34375 L584,228.34375 L584,229.34375 L584,230.34375 L584,231.34375 L583,232.34375 L582,233.34375 L582,234.34375 L582,235.34375 L582,236.34375 L582,237.34375 L582,238.34375 L582,239.34375 L582,240.34375 L582,241.34375 L582,242.34375 L582,243.34375 L582,245.34375 L582,247.34375 L582,248.34375 L582,249.34375 L582,250.34375 L582,251.34375 L583,252.34375 L584,253.34375 L585,254.34375 L586,255.34375 L587,256.34375 L588,257.34375 L589,258.34375 L590,259.34375 L591,259.34375 L592,259.34375 L593,259.34375 L594,259.34375 L595,258.34375 L596,257.34375 L597,256.34375 L598,255.34375 L600,254.34375 Q602,253.34375 603,251.34375 L604,249.34375 L605,248.34375 L606,247.34375 L607,246.34375 L608,245.34375 L609,244.34375 L610,243.34375 L611,241.34375 L612,239.34375 L613,238.34375 L614,237.34375 L614,236.34375 L614,235.34375 L616,234.34375 L618,233.34375 L618,232.34375 L618,231.34375 L619,229.34375 L620,227.34375 L620,226.34375 L620,225.34375 L620,224.34375 L620,223.34375 L620,222.34375 L620,221.34375 L620,219.34375 L620,217.34375 L620,216.34375 L620,215.34375 L620,214.34375 L620,213.34375 L620,212.34375 L620,211.34375 L620,210.34375 L620,209.34375 L620,208.34375 L620,207.34375 L620,206.34375 L620,205.34375 L619,204.34375 L618,203.34375 L617,203.34375 L616,203.34375 L616,201.34375 L616,199.34375 L615,198.34375 L614,197.34375 L613,196.34375 L612,195.34375 L611,194.34375 L610,193.34375 L610,192.34375 L610,191.34375 L609,191.34375 L608,191.34375 L608,190.34375 L608,189.34375 L607,189.34375 L606,189.34375 L605,189.34375 L604,189.34375 L603,189.34375 L602,189.34375 L601,189.34375 L600,189.34375 L599,190.34375 L598,191.34375 L598,192.34375 L598,193.34375 L597,194.34375 L596,195.34375 L595,196.34375 L594,197.34375 L594,199.34375 L594,201.34375 L593,201.34375 L592,201.34375 L592,202.34375 L592,203.34375 L592,204.34375 L592,205.34375 L592,207.34375 L592,209.34375 L592,210.34375 L592,211.34375 L591,212.34375 L590,213.34375 L590,214.34375 L590,215.34375 L589,217.34375 L588,219.34375 L588,220.34375 L588,221.34375 " fill="none" stroke="rgb(255, 204, 204)" stroke-opacity="1" stroke-width="8.842105263157896" stroke-linecap="round" stroke-linejoin="round" /><path d="M618,225.34375 L618,227.34375 L618,229.34375 L618,230.34375 L618,231.34375 L618,232.34375 L618,233.34375 L618,234.34375 L618,235.34375 L619,237.34375 L620,239.34375 L620,240.34375 L620,241.34375 L620,243.34375 L620,245.34375 L620,246.34375 L620,247.34375 L620,249.34375 L620,251.34375 L620,252.34375 L620,253.34375 L620,255.34375 L620,257.34375 L621,258.34375 L622,259.34375 L623,260.34375 L624,261.34375 L625,261.34375 L626,261.34375 L628,260.34375 Q630,259.34375 631,257.34375 L632,255.34375 L633,254.34375 L634,253.34375 L636,252.34375 L638,251.34375 L639,250.34375 L640,249.34375 L641,248.34375 L642,247.34375 L644,246.34375 L646,245.34375 L647,244.34375 Q648,243.34375 649,240.34375 Q650,237.34375 652,234.34375 Q654,231.34375 655,226.34375 Q656,221.34375 658,217.34375 Q660,213.34375 661,209.34375 Q662,205.34375 664,200.34375 Q666,195.34375 667,192.34375 Q668,189.34375 670,184.34375 Q672,179.34375 673,177.34375 Q674,175.34375 676,172.34375 Q678,169.34375 679,168.34375 L680,167.34375 L680,166.34375 L680,165.34375 L681,163.34375 L682,161.34375 L683,160.34375 L684,159.34375 L685,157.34375 L686,155.34375 L686,154.34375 L686,153.34375 L685,154.34375 L684,155.34375 L684,156.34375 L684,157.34375 L684,158.34375 L684,159.34375 L683,160.34375 L682,161.34375 L681,163.34375 L680,165.34375 L680,167.34375 L680,169.34375 L680,171.34375 Q680,173.34375 679,176.34375 Q678,179.34375 677,181.34375 Q676,183.34375 676,186.34375 Q676,189.34375 675,193.34375 Q674,197.34375 674,201.34375 Q674,205.34375 674,207.34375 L674,209.34375 L674,210.34375 L674,211.34375 L674,212.34375 L674,213.34375 L674,215.34375 L674,217.34375 L674,218.34375 L674,219.34375 L674,220.34375 L674,221.34375 L674,222.34375 L674,223.34375 L674,224.34375 L674,225.34375 L674,226.34375 L674,227.34375 L674,228.34375 L674,229.34375 L674,231.34375 L674,233.34375 L674,234.34375 L674,235.34375 L675,235.34375 L676,235.34375 L676,236.34375 L676,237.34375 L676,238.34375 L676,239.34375 L676,240.34375 L676,241.34375 L676,242.34375 L676,243.34375 L676,244.34375 L676,245.34375 L677,246.34375 L678,247.34375 L678,249.34375 L678,251.34375 L678,252.34375 L678,253.34375 L678,254.34375 L678,255.34375 L679,256.34375 L680,257.34375 L681,257.34375 L682,257.34375 L684,257.34375 L686,257.34375 L688,256.34375 L690,255.34375 L691,254.34375 L692,253.34375 L693,252.34375 L694,251.34375 L695,250.34375 L696,249.34375 L697,248.34375 L698,247.34375 L699,246.34375 Q700,245.34375 702,243.34375 Q704,241.34375 705,240.34375 L706,239.34375 L707,238.34375 L708,237.34375 L709,236.34375 L710,235.34375 L711,234.34375 L712,233.34375 L713,232.34375 L714,231.34375 L715,231.34375 L716,231.34375 L716,230.34375 L716,229.34375 L717,229.34375 L718,229.34375 L718,228.34375 L718,227.34375 L718,226.34375 L718,225.34375 " fill="none" stroke="rgb(255, 204, 204)" stroke-opacity="1" stroke-width="8.842105263157896" stroke-linecap="round" stroke-linejoin="round" /><path d="M640,199.34375 L641,199.34375 L642,199.34375 L643,200.34375 L644,201.34375 L645,201.34375 L646,201.34375 L648,202.34375 L650,203.34375 L651,203.34375 L652,203.34375 L653,203.34375 L654,203.34375 L656,204.34375 L658,205.34375 L659,205.34375 L660,205.34375 L661,205.34375 L662,205.34375 L664,207.34375 L666,209.34375 L667,209.34375 L668,209.34375 L670,210.34375 L672,211.34375 L673,211.34375 L674,211.34375 L675,211.34375 L676,211.34375 L677,211.34375 L678,211.34375 L680,211.34375 L682,211.34375 L683,211.34375 L684,211.34375 L685,211.34375 L686,211.34375 L688,211.34375 L690,211.34375 L691,211.34375 L692,211.34375 L693,211.34375 L694,211.34375 L695,211.34375 L696,211.34375 L697,211.34375 L698,211.34375 L699,210.34375 L700,209.34375 " fill="none" stroke="rgb(255, 204, 204)" stroke-opacity="1" stroke-width="8.842105263157896" stroke-linecap="round" stroke-linejoin="round" /><path d="M822,191.34375 L822,192.34375 L822,193.34375 L823,194.34375 L824,195.34375 L824,197.34375 L824,199.34375 L824,201.34375 L824,203.34375 L824,204.34375 L824,205.34375 L824,206.34375 L824,207.34375 L824,209.34375 L824,211.34375 L824,212.34375 L824,213.34375 L824,214.34375 L824,215.34375 L824,217.34375 L824,219.34375 L824,220.34375 L824,221.34375 L824,222.34375 L824,223.34375 L824,224.34375 L824,225.34375 L824,226.34375 L824,227.34375 L824,229.34375 L824,231.34375 L824,232.34375 L824,233.34375 L824,234.34375 L824,235.34375 L824,237.34375 L824,239.34375 L824,240.34375 L824,241.34375 L824,242.34375 L824,243.34375 L823,243.34375 L822,243.34375 L822,244.34375 L822,245.34375 L822,246.34375 L822,247.34375 L822,244.34375 Q822,241.34375 822,237.34375 Q822,233.34375 823,232.34375 L824,231.34375 L825,229.34375 L826,227.34375 L827,226.34375 Q828,225.34375 830,222.34375 Q832,219.34375 833,217.34375 L834,215.34375 L835,214.34375 L836,213.34375 L837,212.34375 L838,211.34375 L839,209.34375 L840,207.34375 L841,206.34375 L842,205.34375 L843,204.34375 L844,203.34375 L845,202.34375 L846,201.34375 L847,199.34375 L848,197.34375 L848,196.34375 L848,195.34375 L849,195.34375 L850,195.34375 L851,194.34375 L852,193.34375 L853,192.34375 L854,191.34375 L854,190.34375 L854,189.34375 L855,189.34375 Q856,189.34375 858,192.34375 Q860,195.34375 860,199.34375 Q860,203.34375 861,205.34375 L862,207.34375 L863,208.34375 L864,209.34375 L864,211.34375 L864,213.34375 L864,214.34375 L864,215.34375 L864,216.34375 L864,217.34375 L864,219.34375 L864,221.34375 L864,222.34375 L864,223.34375 L864,225.34375 L864,227.34375 L864,228.34375 L864,229.34375 L864,230.34375 L864,231.34375 L864,232.34375 L864,233.34375 L864,234.34375 L864,235.34375 L864,236.34375 L864,237.34375 L863,238.34375 L862,239.34375 L861,240.34375 L860,241.34375 L859,242.34375 L858,243.34375 L858,244.34375 L858,245.34375 L857,245.34375 L856,245.34375 L856,246.34375 L856,247.34375 L857,245.34375 L858,243.34375 L858,242.34375 L858,241.34375 L858,239.34375 L858,237.34375 L859,235.34375 L860,233.34375 L860,231.34375 L860,229.34375 L861,227.34375 L862,225.34375 L862,224.34375 L862,223.34375 L862,221.34375 L862,219.34375 L862,218.34375 L862,217.34375 L863,215.34375 L864,213.34375 L865,212.34375 L866,211.34375 L867,209.34375 L868,207.34375 L869,206.34375 L870,205.34375 L871,204.34375 L872,203.34375 L874,202.34375 Q876,201.34375 877,199.34375 L878,197.34375 L879,196.34375 L880,195.34375 L882,194.34375 Q884,193.34375 885,191.34375 L886,189.34375 L887,189.34375 L888,189.34375 L889,189.34375 L890,189.34375 L891,189.34375 L892,189.34375 L893,190.34375 L894,191.34375 L894,192.34375 L894,193.34375 L895,195.34375 L896,197.34375 L897,198.34375 L898,199.34375 L898,202.34375 L898,205.34375 L898,207.34375 L898,209.34375 L898,211.34375 L898,213.34375 L898,216.34375 Q898,219.34375 897,221.34375 L896,223.34375 L896,225.34375 L896,227.34375 L896,228.34375 L896,229.34375 L896,230.34375 L896,231.34375 L896,233.34375 L896,235.34375 L896,236.34375 L896,237.34375 L896,238.34375 L896,239.34375 L897,239.34375 L898,239.34375 L899,239.34375 L900,239.34375 L901,240.34375 L902,241.34375 L903,241.34375 L904,241.34375 L905,241.34375 L906,241.34375 L908,241.34375 L910,241.34375 L911,241.34375 L912,241.34375 L913,241.34375 L914,241.34375 L915,240.34375 L916,239.34375 L918,238.34375 Q920,237.34375 921,235.34375 Q922,233.34375 924,232.34375 Q926,231.34375 927,229.34375 L928,227.34375 L929,226.34375 L930,225.34375 L932,224.34375 Q934,223.34375 935,221.34375 L936,219.34375 L937,218.34375 L938,217.34375 L939,216.34375 L940,215.34375 L941,214.34375 L942,213.34375 L943,212.34375 L944,211.34375 L944,210.34375 L944,209.34375 L944,208.34375 L944,207.34375 L944,205.34375 L944,203.34375 L944,202.34375 L944,201.34375 L944,200.34375 L944,199.34375 L944,198.34375 L944,197.34375 L944,196.34375 L944,195.34375 L943,194.34375 L942,193.34375 L941,193.34375 L940,193.34375 L939,193.34375 L938,193.34375 L937,194.34375 L936,195.34375 L935,196.34375 L934,197.34375 L933,199.34375 L932,201.34375 L931,202.34375 L930,203.34375 L930,204.34375 L930,205.34375 L929,207.34375 Q928,209.34375 926,212.34375 Q924,215.34375 923,218.34375 Q922,221.34375 921,223.34375 L920,225.34375 L919,226.34375 L918,227.34375 L918,228.34375 L918,229.34375 L918,230.34375 L918,231.34375 L918,232.34375 L918,233.34375 L918,234.34375 L918,235.34375 L919,235.34375 L920,235.34375 L922,235.34375 L924,235.34375 L927,235.34375 Q930,235.34375 935,235.34375 Q940,235.34375 942,235.34375 L944,235.34375 L947,235.34375 L950,235.34375 L952,235.34375 L954,235.34375 L955,234.34375 L956,233.34375 L957,233.34375 L958,233.34375 L959,233.34375 L960,233.34375 " fill="none" stroke="rgb(255, 204, 204)" stroke-opacity="1" stroke-width="8.842105263157896" stroke-linecap="round" stroke-linejoin="round" /><path d="M984,237.34375 L984,238.34375 L984,239.34375 L984,240.34375 L984,241.34375 L984,242.34375 L984,243.34375 L984,244.34375 L984,245.34375 L984,246.34375 L984,247.34375 L985,249.34375 L986,251.34375 L986,252.34375 L986,253.34375 L986,254.34375 L986,255.34375 L986,256.34375 L986,257.34375 L986,258.34375 L986,259.34375 L986,261.34375 L986,263.34375 L986,264.34375 L986,265.34375 L986,266.34375 L986,267.34375 L985,267.34375 L984,267.34375 L984,268.34375 L984,269.34375 L983,269.34375 L982,269.34375 L981,269.34375 L980,269.34375 " fill="none" stroke="rgb(255, 204, 204)" stroke-opacity="1" stroke-width="8.842105263157896" stroke-linecap="round" stroke-linejoin="round" /><path d="M112,417.34375 L112,416.34375 Q112,415.34375 115,412.34375 Q118,409.34375 121,405.34375 Q124,401.34375 126,398.34375 Q128,395.34375 131,392.34375 Q134,389.34375 138,384.34375 Q142,379.34375 145,375.34375 Q148,371.34375 153,364.34375 Q158,357.34375 161,352.34375 Q164,347.34375 166,344.34375 Q168,341.34375 169,339.34375 Q170,337.34375 172,334.34375 Q174,331.34375 175,329.34375 Q176,327.34375 178,323.34375 Q180,319.34375 181,315.34375 Q182,311.34375 184,307.34375 Q186,303.34375 186,300.34375 Q186,297.34375 188,296.34375 L190,295.34375 L190,294.34375 L190,293.34375 L190,292.34375 L190,291.34375 L191,290.34375 L192,289.34375 L191,289.34375 L190,289.34375 L189,289.34375 L188,289.34375 L186,290.34375 Q184,291.34375 182,292.34375 L180,293.34375 L179,294.34375 L178,295.34375 L176,296.34375 L174,297.34375 L173,298.34375 Q172,299.34375 169,302.34375 Q166,305.34375 165,307.34375 L164,309.34375 L163,310.34375 L162,311.34375 L161,312.34375 L160,313.34375 L160,316.34375 L160,319.34375 L159,320.34375 L158,321.34375 L158,324.34375 Q158,327.34375 158,330.34375 Q158,333.34375 157,338.34375 Q156,343.34375 156,347.34375 Q156,351.34375 155,358.34375 Q154,365.34375 153,370.34375 Q152,375.34375 152,379.34375 Q152,383.34375 152,386.34375 Q152,389.34375 152,393.34375 Q152,397.34375 152,399.34375 Q152,401.34375 152,406.34375 Q152,411.34375 153,415.34375 Q154,419.34375 155,426.34375 Q156,433.34375 156,438.34375 Q156,443.34375 156,445.34375 L156,447.34375 L156,449.34375 L156,451.34375 L156,452.34375 L156,453.34375 L156,454.34375 L156,455.34375 L156,456.34375 L156,457.34375 L156,458.34375 L156,459.34375 L156,460.34375 L156,461.34375 L157,461.34375 L158,461.34375 L161,461.34375 Q164,461.34375 169,456.34375 Q174,451.34375 178,447.34375 Q182,443.34375 186,438.34375 Q190,433.34375 192,429.34375 Q194,425.34375 196,422.34375 Q198,419.34375 198,418.34375 L198,417.34375 " fill="none" stroke="rgb(255, 204, 204)" stroke-opacity="1" stroke-width="8.842105263157896" stroke-linecap="round" stroke-linejoin="round" /><path d="M334,381.34375 L334,382.34375 L334,383.34375 L334,384.34375 L334,385.34375 L334,386.34375 L334,387.34375 L334,388.34375 L334,389.34375 L334,390.34375 L334,391.34375 L334,392.34375 L334,393.34375 L334,394.34375 L334,395.34375 L333,398.34375 Q332,401.34375 332,404.34375 Q332,407.34375 332,410.34375 Q332,413.34375 332,416.34375 Q332,419.34375 332,423.34375 Q332,427.34375 332,430.34375 Q332,433.34375 332,439.34375 Q332,445.34375 332,450.34375 Q332,455.34375 332,459.34375 Q332,463.34375 332,467.34375 Q332,471.34375 332,475.34375 Q332,479.34375 332,481.34375 Q332,483.34375 332,487.34375 Q332,491.34375 333,494.34375 Q334,497.34375 335,504.34375 Q336,511.34375 336,515.34375 Q336,519.34375 335,522.34375 Q334,525.34375 333,526.34375 L332,527.34375 L332,528.34375 L332,529.34375 L331,529.34375 Q330,529.34375 327,531.34375 Q324,533.34375 322,533.34375 L320,533.34375 L317,533.34375 Q314,533.34375 309,530.34375 Q304,527.34375 297,522.34375 Q290,517.34375 285,514.34375 Q280,511.34375 276,509.34375 Q272,507.34375 271,507.34375 L270,507.34375 L270,506.34375 L270,505.34375 L270,504.34375 L270,503.34375 L269,502.34375 L268,501.34375 L268,500.34375 L268,499.34375 L268,498.34375 L268,497.34375 " fill="none" stroke="rgb(255, 204, 204)" stroke-opacity="1" stroke-width="8.842105263157896" stroke-linecap="round" stroke-linejoin="round" /><path d="M342,347.34375 L342,346.34375 L342,345.34375 L342,344.34375 L342,343.34375 L342,342.34375 L342,341.34375 L342,340.34375 L342,339.34375 L342,340.34375 L342,341.34375 L342,342.34375 L342,343.34375 L342,344.34375 L342,345.34375 L343,346.34375 L344,347.34375 " fill="none" stroke="rgb(255, 204, 204)" stroke-opacity="1" stroke-width="8.842105263157896" stroke-linecap="round" stroke-linejoin="round" /><path d="M360,373.34375 L361,373.34375 L362,373.34375 L363,375.34375 Q364,377.34375 365,379.34375 Q366,381.34375 367,384.34375 Q368,387.34375 369,389.34375 L370,391.34375 L370,393.34375 L370,395.34375 L371,396.34375 L372,397.34375 L372,399.34375 L372,401.34375 L372,403.34375 L372,405.34375 L373,407.34375 L374,409.34375 L374,411.34375 L374,413.34375 L374,414.34375 L374,415.34375 L374,416.34375 L374,417.34375 L374,419.34375 L374,421.34375 L375,422.34375 L376,423.34375 L377,424.34375 L378,425.34375 L378,426.34375 L378,427.34375 L379,428.34375 L380,429.34375 L380,430.34375 L380,431.34375 L380,432.34375 L380,433.34375 L380,434.34375 L380,435.34375 L380,436.34375 L380,437.34375 L381,437.34375 L382,437.34375 L384,437.34375 Q386,437.34375 389,436.34375 Q392,435.34375 393,434.34375 L394,433.34375 L395,432.34375 L396,431.34375 L397,430.34375 L398,429.34375 L399,427.34375 Q400,425.34375 401,423.34375 L402,421.34375 L402,419.34375 L402,417.34375 L402,414.34375 L402,411.34375 L402,409.34375 L402,407.34375 L402,406.34375 L402,405.34375 L402,404.34375 L402,403.34375 L402,402.34375 L402,401.34375 L402,399.34375 L402,397.34375 L402,396.34375 L402,395.34375 L403,393.34375 L404,391.34375 L404,390.34375 L404,389.34375 L404,387.34375 L404,385.34375 L404,384.34375 L404,383.34375 L404,382.34375 L404,381.34375 L404,380.34375 L404,379.34375 L405,377.34375 L406,375.34375 L406,374.34375 L406,373.34375 L406,372.34375 L406,371.34375 L406,370.34375 L406,369.34375 L406,368.34375 L406,367.34375 L406,368.34375 L406,369.34375 L406,371.34375 Q406,373.34375 405,376.34375 Q404,379.34375 404,382.34375 Q404,385.34375 404,389.34375 Q404,393.34375 406,396.34375 Q408,399.34375 408,401.34375 L408,403.34375 L408,406.34375 L408,409.34375 L408,410.34375 L408,411.34375 L408,413.34375 L408,415.34375 L408,416.34375 L408,417.34375 L408,418.34375 L408,419.34375 L408,421.34375 L408,423.34375 L409,424.34375 L410,425.34375 L410,426.34375 L410,427.34375 L411,428.34375 L412,429.34375 L413,429.34375 L414,429.34375 L415,429.34375 L416,429.34375 L418,429.34375 L420,429.34375 L423,429.34375 Q426,429.34375 430,429.34375 Q434,429.34375 436,428.34375 L438,427.34375 L439,426.34375 L440,425.34375 L441,424.34375 L442,423.34375 L443,422.34375 L444,421.34375 L444,420.34375 L444,419.34375 " fill="none" stroke="rgb(255, 204, 204)" stroke-opacity="1" stroke-width="8.842105263157896" stroke-linecap="round" stroke-linejoin="round" /><path d="M460,383.34375 L460,382.34375 L460,381.34375 L460,379.34375 L460,377.34375 L460,376.34375 L460,375.34375 L460,374.34375 L460,373.34375 L461,372.34375 L462,371.34375 L462,370.34375 L462,369.34375 L462,368.34375 L462,367.34375 L462,366.34375 L462,365.34375 L462,364.34375 L462,363.34375 L461,362.34375 L460,361.34375 L459,361.34375 L458,361.34375 L457,361.34375 L456,361.34375 L455,361.34375 L454,361.34375 L452,361.34375 L450,361.34375 L449,361.34375 L448,361.34375 L448,362.34375 L448,363.34375 L448,364.34375 L448,365.34375 L448,366.34375 L448,367.34375 L448,369.34375 L448,371.34375 L448,372.34375 L448,373.34375 L449,375.34375 L450,377.34375 L451,378.34375 L452,379.34375 L453,380.34375 L454,381.34375 L455,382.34375 L456,383.34375 L457,385.34375 L458,387.34375 L459,388.34375 L460,389.34375 L461,390.34375 L462,391.34375 L463,392.34375 Q464,393.34375 466,395.34375 Q468,397.34375 469,398.34375 L470,399.34375 L471,400.34375 L472,401.34375 L474,402.34375 L476,403.34375 L476,404.34375 L476,405.34375 L477,406.34375 L478,407.34375 L478,408.34375 L478,409.34375 L478,411.34375 L478,413.34375 L478,414.34375 L478,415.34375 L478,416.34375 L478,417.34375 L476,417.34375 L474,417.34375 L473,417.34375 L472,417.34375 L471,417.34375 L470,417.34375 L468,417.34375 L466,417.34375 L465,417.34375 L464,417.34375 L463,417.34375 L462,417.34375 L461,417.34375 L460,417.34375 L459,417.34375 L458,417.34375 L457,417.34375 L456,417.34375 L455,416.34375 L454,415.34375 L453,414.34375 L452,413.34375 " fill="none" stroke="rgb(255, 204, 204)" stroke-opacity="1" stroke-width="8.842105263157896" stroke-linecap="round" stroke-linejoin="round" /><path d="M500,317.34375 L500,318.34375 L500,319.34375 L500,320.34375 Q500,321.34375 501,325.34375 Q502,329.34375 502,332.34375 Q502,335.34375 503,340.34375 Q504,345.34375 504,348.34375 Q504,351.34375 504,354.34375 Q504,357.34375 504,361.34375 Q504,365.34375 504,368.34375 Q504,371.34375 504,374.34375 Q504,377.34375 504,381.34375 Q504,385.34375 505,388.34375 Q506,391.34375 507,395.34375 Q508,399.34375 508,400.34375 L508,401.34375 L509,403.34375 L510,405.34375 L510,406.34375 L510,407.34375 L511,408.34375 Q512,409.34375 514,411.34375 L516,413.34375 L516,414.34375 L516,415.34375 L517,416.34375 L518,417.34375 L520,417.34375 L522,417.34375 L523,418.34375 L524,419.34375 L525,419.34375 L526,419.34375 L527,419.34375 L528,419.34375 L531,419.34375 Q534,419.34375 538,419.34375 Q542,419.34375 547,418.34375 Q552,417.34375 555,415.34375 Q558,413.34375 559,412.34375 L560,411.34375 L561,410.34375 L562,409.34375 L562,408.34375 L562,407.34375 L560,407.34375 L558,407.34375 L557,406.34375 L556,405.34375 " fill="none" stroke="rgb(255, 204, 204)" stroke-opacity="1" stroke-width="8.842105263157896" stroke-linecap="round" stroke-linejoin="round" /><path d="M488,371.34375 L489,371.34375 L490,371.34375 L492,371.34375 Q494,371.34375 498,371.34375 L502,371.34375 L503,371.34375 L504,371.34375 L505,371.34375 L506,371.34375 L507,371.34375 L508,371.34375 L510,371.34375 L512,371.34375 L513,371.34375 L514,371.34375 L515,371.34375 L516,371.34375 L517,371.34375 L518,371.34375 L519,371.34375 L520,371.34375 L521,371.34375 L522,371.34375 L523,371.34375 L524,371.34375 L523,371.34375 L522,371.34375 L521,371.34375 L520,371.34375 L519,371.34375 L518,371.34375 L516,371.34375 L514,371.34375 L513,371.34375 L512,371.34375 L511,371.34375 L510,371.34375 L509,371.34375 L508,371.34375 L507,371.34375 L506,371.34375 L505,371.34375 L504,371.34375 L503,371.34375 L502,371.34375 L501,370.34375 L500,369.34375 L499,369.34375 L498,369.34375 " fill="none" stroke="rgb(255, 204, 204)" stroke-opacity="1" stroke-width="8.842105263157896" stroke-linecap="round" stroke-linejoin="round" /><path d="M660,373.34375 L660,372.34375 L660,371.34375 L662,370.34375 L664,369.34375 L664,368.34375 L664,367.34375 L665,365.34375 L666,363.34375 L667,362.34375 L668,361.34375 L668,360.34375 L668,359.34375 L668,357.34375 L668,355.34375 L667,354.34375 L666,353.34375 L665,352.34375 L664,351.34375 L663,351.34375 L662,351.34375 L661,351.34375 L660,351.34375 L659,351.34375 L658,351.34375 L657,352.34375 L656,353.34375 L655,354.34375 L654,355.34375 L654,356.34375 L654,357.34375 L652,359.34375 Q650,361.34375 650,363.34375 L650,365.34375 L649,367.34375 Q648,369.34375 648,374.34375 Q648,379.34375 648,382.34375 L648,385.34375 L648,386.34375 L648,387.34375 L648,388.34375 L648,389.34375 L648,390.34375 L648,391.34375 L648,393.34375 L648,395.34375 L648,396.34375 L648,397.34375 L648,399.34375 L648,401.34375 L648,402.34375 L648,403.34375 L648,404.34375 L648,405.34375 L649,407.34375 L650,409.34375 L651,410.34375 L652,411.34375 L653,411.34375 L654,411.34375 L655,412.34375 L656,413.34375 L657,413.34375 L658,413.34375 L659,413.34375 L660,413.34375 L661,413.34375 L662,413.34375 L663,413.34375 L664,413.34375 L665,413.34375 L666,413.34375 L668,411.34375 Q670,409.34375 671,408.34375 L672,407.34375 L673,406.34375 L674,405.34375 L675,404.34375 L676,403.34375 L676,401.34375 L676,399.34375 L677,399.34375 L678,399.34375 L679,398.34375 L680,397.34375 L681,395.34375 L682,393.34375 L682,392.34375 L682,391.34375 L683,390.34375 L684,389.34375 L685,388.34375 L686,387.34375 L687,386.34375 L688,385.34375 L689,383.34375 L690,381.34375 L690,380.34375 L690,379.34375 L692,377.34375 L694,375.34375 L694,374.34375 L694,373.34375 L694,372.34375 L694,371.34375 L695,369.34375 L696,367.34375 L696,366.34375 L696,365.34375 L696,367.34375 L696,369.34375 L696,370.34375 L696,371.34375 L695,374.34375 L694,377.34375 L694,378.34375 L694,379.34375 L694,381.34375 L694,383.34375 L693,384.34375 L692,385.34375 L692,386.34375 L692,387.34375 L692,388.34375 L692,389.34375 L692,391.34375 L692,393.34375 L692,394.34375 L692,395.34375 L692,396.34375 L692,397.34375 L692,398.34375 L692,399.34375 L693,400.34375 L694,401.34375 L695,402.34375 L696,403.34375 L697,404.34375 L698,405.34375 L700,405.34375 L702,405.34375 L703,405.34375 L704,405.34375 L705,405.34375 L706,405.34375 L707,404.34375 L708,403.34375 L710,402.34375 Q712,401.34375 713,399.34375 L714,397.34375 L715,396.34375 L716,395.34375 L717,394.34375 L718,393.34375 L719,392.34375 L720,391.34375 L721,390.34375 L722,389.34375 L724,388.34375 L726,387.34375 L726,386.34375 L726,385.34375 L727,383.34375 L728,381.34375 L728,380.34375 L728,379.34375 L728,378.34375 L728,377.34375 L728,376.34375 L728,375.34375 L728,373.34375 L728,371.34375 L728,369.34375 L728,367.34375 L727,366.34375 L726,365.34375 L725,364.34375 L724,363.34375 L724,362.34375 L724,361.34375 L724,360.34375 L724,359.34375 L723,358.34375 L722,357.34375 L721,356.34375 L720,355.34375 L719,354.34375 L718,353.34375 L718,352.34375 L718,351.34375 L717,351.34375 L716,351.34375 L716,350.34375 L716,349.34375 L715,349.34375 L714,349.34375 L713,348.34375 L712,347.34375 L710,346.34375 L708,345.34375 L708,344.34375 L708,343.34375 L707,343.34375 L706,343.34375 L705,343.34375 L704,343.34375 L703,343.34375 L702,343.34375 L701,344.34375 L700,345.34375 L699,346.34375 L698,347.34375 L697,348.34375 L696,349.34375 L695,350.34375 L694,351.34375 L693,352.34375 L692,353.34375 L691,355.34375 L690,357.34375 L690,358.34375 L690,359.34375 " fill="none" stroke="rgb(255, 204, 204)" stroke-opacity="1" stroke-width="8.842105263157896" stroke-linecap="round" stroke-linejoin="round" /><path d="M724,369.34375 L724,370.34375 L724,371.34375 L724,372.34375 L724,373.34375 L724,374.34375 L724,375.34375 L724,377.34375 L724,379.34375 L724,380.34375 L724,381.34375 L724,382.34375 L724,383.34375 L724,385.34375 L724,387.34375 L724,388.34375 L724,389.34375 L725,390.34375 L726,391.34375 L726,392.34375 L726,393.34375 L726,394.34375 L726,395.34375 L726,396.34375 L726,397.34375 L727,397.34375 L728,397.34375 L729,397.34375 L730,397.34375 L731,397.34375 L732,397.34375 L734,397.34375 L736,397.34375 L737,397.34375 L738,397.34375 L739,395.34375 L740,393.34375 L741,392.34375 L742,391.34375 L744,390.34375 Q746,389.34375 747,387.34375 Q748,385.34375 750,384.34375 Q752,383.34375 753,381.34375 L754,379.34375 L754,378.34375 L754,377.34375 L755,375.34375 L756,373.34375 L756,371.34375 Q756,369.34375 758,365.34375 Q760,361.34375 760,360.34375 L760,359.34375 L760,358.34375 L760,357.34375 L760,356.34375 L760,355.34375 L760,354.34375 L760,353.34375 L760,352.34375 L760,351.34375 L760,350.34375 L760,349.34375 L760,351.34375 Q760,353.34375 760,357.34375 Q760,361.34375 759,363.34375 Q758,365.34375 758,368.34375 Q758,371.34375 758,374.34375 Q758,377.34375 758,381.34375 Q758,385.34375 757,387.34375 Q756,389.34375 755,391.34375 L754,393.34375 L754,394.34375 L754,395.34375 L753,397.34375 L752,399.34375 L751,400.34375 L750,401.34375 L750,402.34375 L750,403.34375 L750,404.34375 L750,405.34375 L750,406.34375 L750,407.34375 L750,403.34375 Q750,399.34375 751,395.34375 Q752,391.34375 753,389.34375 Q754,387.34375 755,385.34375 L756,383.34375 L757,382.34375 Q758,381.34375 760,379.34375 Q762,377.34375 763,376.34375 L764,375.34375 L765,374.34375 Q766,373.34375 768,371.34375 Q770,369.34375 771,367.34375 L772,365.34375 L773,364.34375 L774,363.34375 L774,362.34375 L774,361.34375 L775,361.34375 L776,361.34375 L777,360.34375 L778,359.34375 L779,359.34375 L780,359.34375 L781,358.34375 L782,357.34375 L783,357.34375 L784,357.34375 L785,356.34375 L786,355.34375 L787,354.34375 L788,353.34375 L790,353.34375 L792,353.34375 L793,353.34375 L794,353.34375 L795,352.34375 L796,351.34375 L797,353.34375 Q798,355.34375 799,360.34375 Q800,365.34375 800,369.34375 Q800,373.34375 800,376.34375 L800,379.34375 L800,381.34375 L800,383.34375 L800,385.34375 L800,387.34375 L800,389.34375 L800,391.34375 L800,392.34375 L800,393.34375 L800,394.34375 L800,395.34375 L800,396.34375 L800,397.34375 L800,398.34375 L800,399.34375 L800,400.34375 L800,401.34375 L802,397.34375 Q804,393.34375 807,386.34375 Q810,379.34375 811,376.34375 Q812,373.34375 814,369.34375 Q816,365.34375 817,361.34375 Q818,357.34375 820,353.34375 Q822,349.34375 824,345.34375 Q826,341.34375 827,336.34375 Q828,331.34375 830,327.34375 Q832,323.34375 834,318.34375 Q836,313.34375 837,312.34375 L838,311.34375 L839,309.34375 L840,307.34375 L841,306.34375 L842,305.34375 L842,304.34375 L842,303.34375 L842,301.34375 L842,299.34375 L842,298.34375 L842,297.34375 L843,297.34375 L844,297.34375 L844,296.34375 L844,295.34375 L844,298.34375 Q844,301.34375 843,306.34375 Q842,311.34375 842,313.34375 Q842,315.34375 839,325.34375 Q836,335.34375 835,341.34375 Q834,347.34375 832,355.34375 Q830,363.34375 830,365.34375 Q830,367.34375 830,372.34375 Q830,377.34375 830,380.34375 Q830,383.34375 830,386.34375 L830,389.34375 L830,391.34375 L830,393.34375 L830,395.34375 L830,397.34375 L830,399.34375 L830,401.34375 L831,402.34375 L832,403.34375 L832,404.34375 L832,405.34375 L833,405.34375 L834,405.34375 L835,405.34375 L836,405.34375 L839,405.34375 Q842,405.34375 849,403.34375 Q856,401.34375 859,399.34375 Q862,397.34375 866,396.34375 Q870,395.34375 873,394.34375 Q876,393.34375 877,392.34375 L878,391.34375 L879,390.34375 L880,389.34375 L880,388.34375 L880,387.34375 L880,386.34375 L880,385.34375 " fill="none" stroke="rgb(255, 204, 204)" stroke-opacity="1" stroke-width="8.842105263157896" stroke-linecap="round" stroke-linejoin="round" /><path d="M810,357.34375 L813,357.34375 Q816,357.34375 820,357.34375 Q824,357.34375 833,357.34375 Q842,357.34375 846,357.34375 Q850,357.34375 852,356.34375 L854,355.34375 L855,355.34375 L856,355.34375 L856,354.34375 L856,353.34375 L856,352.34375 L856,351.34375 " fill="none" stroke="rgb(255, 204, 204)" stroke-opacity="1" stroke-width="8.842105263157896" stroke-linecap="round" stroke-linejoin="round" /><path d="M812,289.34375 L812,290.34375 L812,291.34375 L812,292.34375 L812,293.34375 L813,295.34375 L814,297.34375 L815,298.34375 Q816,299.34375 817,303.34375 Q818,307.34375 819,310.34375 Q820,313.34375 821,315.34375 L822,317.34375 L822,318.34375 L822,319.34375 L822,321.34375 L822,323.34375 L822,324.34375 L822,325.34375 L821,325.34375 L820,325.34375 L819,325.34375 L818,325.34375 " fill="none" stroke="rgb(255, 204, 204)" stroke-opacity="1" stroke-width="8.842105263157896" stroke-linecap="round" stroke-linejoin="round" /><path d="M682,495.34375 L683,495.34375 L684,495.34375 L686,494.34375 Q688,493.34375 692,491.34375 Q696,489.34375 700,486.34375 Q704,483.34375 708,480.34375 Q712,477.34375 716,475.34375 Q720,473.34375 722,470.34375 Q724,467.34375 725,466.34375 Q726,465.34375 728,463.34375 Q730,461.34375 731,459.34375 L732,457.34375 L732,455.34375 L732,453.34375 L732,450.34375 L732,447.34375 L732,445.34375 Q732,443.34375 731,440.34375 Q730,437.34375 729,435.34375 L728,433.34375 L728,432.34375 L728,431.34375 L727,431.34375 L726,431.34375 L725,430.34375 L724,429.34375 L724,428.34375 L724,427.34375 L723,427.34375 L722,427.34375 L721,427.34375 L720,427.34375 L719,427.34375 L718,427.34375 L717,428.34375 L716,429.34375 L715,430.34375 L714,431.34375 L713,433.34375 Q712,435.34375 711,438.34375 Q710,441.34375 709,444.34375 Q708,447.34375 708,449.34375 L708,451.34375 L707,453.34375 Q706,455.34375 705,458.34375 Q704,461.34375 704,464.34375 Q704,467.34375 704,471.34375 Q704,475.34375 704,480.34375 Q704,485.34375 703,487.34375 L702,489.34375 L702,490.34375 L702,491.34375 L702,492.34375 L702,493.34375 L702,495.34375 L702,497.34375 L702,499.34375 L702,501.34375 L702,502.34375 L702,503.34375 L702,505.34375 L702,507.34375 L702,509.34375 L702,511.34375 L702,512.34375 L702,513.34375 L702,515.34375 L702,517.34375 L702,518.34375 L702,519.34375 L702,520.34375 L702,521.34375 L703,522.34375 L704,523.34375 L705,525.34375 L706,527.34375 L707,528.34375 L708,529.34375 L709,529.34375 L710,529.34375 L711,530.34375 L712,531.34375 L713,531.34375 L714,531.34375 L716,531.34375 L718,531.34375 L719,531.34375 L720,531.34375 L721,530.34375 L722,529.34375 L723,529.34375 L724,529.34375 L725,527.34375 L726,525.34375 L727,524.34375 L728,523.34375 L730,522.34375 L732,521.34375 L732,520.34375 L732,519.34375 L732,517.34375 L732,515.34375 L732,514.34375 L732,513.34375 L732,511.34375 L732,509.34375 L732,508.34375 L732,507.34375 L732,506.34375 L732,505.34375 L732,504.34375 L732,503.34375 L731,501.34375 L730,499.34375 L730,498.34375 L730,497.34375 L729,497.34375 L728,497.34375 L727,495.34375 L726,493.34375 L725,492.34375 L724,491.34375 L723,491.34375 L722,491.34375 L721,491.34375 L720,491.34375 L719,491.34375 L718,491.34375 L717,491.34375 L716,491.34375 L715,491.34375 L714,491.34375 L713,493.34375 L712,495.34375 " fill="none" stroke="rgb(255, 204, 204)" stroke-opacity="1" stroke-width="8.842105263157896" stroke-linecap="round" stroke-linejoin="round" /><path d="M746,505.34375 L747,505.34375 L748,505.34375 L749,505.34375 L750,505.34375 L753,504.34375 Q756,503.34375 759,502.34375 Q762,501.34375 763,500.34375 L764,499.34375 L764,498.34375 L764,497.34375 L765,496.34375 L766,495.34375 L767,494.34375 L768,493.34375 L768,492.34375 L768,491.34375 L768,489.34375 L768,487.34375 L768,486.34375 L768,485.34375 L768,484.34375 L768,483.34375 L768,481.34375 L768,479.34375 L768,478.34375 L768,477.34375 L768,476.34375 L768,475.34375 L767,474.34375 L766,473.34375 L766,472.34375 L766,471.34375 L765,471.34375 L764,471.34375 L763,472.34375 L762,473.34375 L761,474.34375 L760,475.34375 L759,476.34375 L758,477.34375 L758,478.34375 L758,479.34375 L758,481.34375 L758,483.34375 L758,484.34375 L758,485.34375 L757,487.34375 L756,489.34375 L756,490.34375 L756,491.34375 L755,492.34375 L754,493.34375 L754,494.34375 L754,495.34375 L754,496.34375 L754,497.34375 L754,499.34375 L754,501.34375 L754,502.34375 L754,503.34375 L754,505.34375 L754,507.34375 L754,508.34375 L754,509.34375 L755,510.34375 L756,511.34375 L756,512.34375 L756,513.34375 L757,514.34375 L758,515.34375 L760,516.34375 L762,517.34375 L763,518.34375 L764,519.34375 L765,520.34375 L766,521.34375 L767,521.34375 L768,521.34375 L770,521.34375 L772,521.34375 L773,522.34375 Q774,523.34375 777,524.34375 Q780,525.34375 783,525.34375 L786,525.34375 L788,525.34375 L790,525.34375 L791,525.34375 L792,525.34375 L793,524.34375 Q794,523.34375 796,521.34375 Q798,519.34375 800,517.34375 Q802,515.34375 803,513.34375 Q804,511.34375 805,506.34375 Q806,501.34375 808,496.34375 Q810,491.34375 812,488.34375 Q814,485.34375 815,483.34375 Q816,481.34375 817,477.34375 Q818,473.34375 820,470.34375 Q822,467.34375 823,464.34375 Q824,461.34375 825,456.34375 Q826,451.34375 826,448.34375 L826,445.34375 L827,444.34375 L828,443.34375 L828,442.34375 L828,441.34375 L828,440.34375 L828,439.34375 L828,438.34375 L828,437.34375 L828,435.34375 L828,433.34375 L827,432.34375 L826,431.34375 L825,430.34375 L824,429.34375 L822,429.34375 L820,429.34375 L819,429.34375 L818,429.34375 L817,430.34375 Q816,431.34375 815,435.34375 Q814,439.34375 812,441.34375 Q810,443.34375 809,448.34375 Q808,453.34375 808,455.34375 Q808,457.34375 807,461.34375 Q806,465.34375 806,467.34375 L806,469.34375 L806,471.34375 L806,473.34375 L806,474.34375 L806,475.34375 L806,478.34375 L806,481.34375 L806,483.34375 L806,485.34375 L806,487.34375 L806,489.34375 L806,492.34375 Q806,495.34375 807,497.34375 L808,499.34375 L808,500.34375 L808,501.34375 L808,503.34375 L808,505.34375 L809,507.34375 L810,509.34375 L810,510.34375 L810,511.34375 L810,512.34375 L810,513.34375 L811,515.34375 L812,517.34375 L813,517.34375 L814,517.34375 L815,518.34375 L816,519.34375 L817,519.34375 L818,519.34375 L819,520.34375 L820,521.34375 L822,521.34375 L824,521.34375 L826,521.34375 L828,521.34375 L829,521.34375 L830,521.34375 L831,521.34375 L832,521.34375 L833,520.34375 L834,519.34375 L836,518.34375 L838,517.34375 L839,516.34375 L840,515.34375 L841,513.34375 Q842,511.34375 843,509.34375 L844,507.34375 L845,506.34375 L846,505.34375 L847,504.34375 L848,503.34375 L848,500.34375 Q848,497.34375 848,494.34375 Q848,491.34375 849,489.34375 L850,487.34375 L850,486.34375 L850,485.34375 L850,483.34375 L850,481.34375 L850,480.34375 L850,479.34375 L850,478.34375 L850,477.34375 L850,478.34375 L850,479.34375 L850,482.34375 Q850,485.34375 850,488.34375 Q850,491.34375 849,494.34375 Q848,497.34375 848,500.34375 L848,503.34375 L848,504.34375 L848,505.34375 L848,506.34375 L848,507.34375 L848,508.34375 L848,509.34375 L848,510.34375 L848,511.34375 L848,512.34375 L848,513.34375 L848,514.34375 L848,515.34375 L848,516.34375 L848,517.34375 " fill="none" stroke="rgb(255, 204, 204)" stroke-opacity="1" stroke-width="8.842105263157896" stroke-linecap="round" stroke-linejoin="round" /><path d="M860,433.34375 L861,433.34375 L862,433.34375 L862,435.34375 L862,437.34375 L862,438.34375 L862,439.34375 L862,440.34375 L862,441.34375 L862,442.34375 L862,443.34375 L861,444.34375 L860,445.34375 " fill="none" stroke="rgb(255, 204, 204)" stroke-opacity="1" stroke-width="8.842105263157896" stroke-linecap="round" stroke-linejoin="round" /><path d="M880,497.34375 L882,496.34375 Q884,495.34375 886,494.34375 Q888,493.34375 891,492.34375 Q894,491.34375 896,489.34375 Q898,487.34375 899,486.34375 L900,485.34375 L901,484.34375 L902,483.34375 L903,483.34375 L904,483.34375 L904,481.34375 L904,479.34375 L904,478.34375 L904,477.34375 L904,476.34375 L904,475.34375 L904,474.34375 L904,473.34375 L904,471.34375 L904,469.34375 L904,468.34375 L904,467.34375 L904,465.34375 L904,463.34375 L904,462.34375 L904,461.34375 L904,460.34375 L904,459.34375 L903,459.34375 L902,459.34375 L901,459.34375 L900,459.34375 L900,458.34375 L900,457.34375 L899,457.34375 L898,457.34375 L896,458.34375 L894,459.34375 L894,460.34375 L894,461.34375 L894,462.34375 L894,463.34375 L894,464.34375 L894,465.34375 L893,466.34375 L892,467.34375 L892,468.34375 L892,469.34375 L892,471.34375 L892,473.34375 L892,474.34375 L892,475.34375 L892,476.34375 L892,477.34375 L892,478.34375 L892,479.34375 L892,481.34375 L892,483.34375 L892,484.34375 L892,485.34375 L892,486.34375 L892,487.34375 L892,488.34375 L892,489.34375 L892,491.34375 L892,493.34375 L893,495.34375 L894,497.34375 L895,498.34375 L896,499.34375 L896,500.34375 L896,501.34375 L897,501.34375 L898,501.34375 L898,503.34375 L898,505.34375 L899,506.34375 L900,507.34375 L902,508.34375 L904,509.34375 L904,511.34375 L904,513.34375 L905,514.34375 L906,515.34375 L906,516.34375 L906,517.34375 L907,517.34375 L908,517.34375 L910,517.34375 L912,517.34375 L913,517.34375 L914,517.34375 L915,516.34375 L916,515.34375 L917,513.34375 Q918,511.34375 920,508.34375 Q922,505.34375 923,504.34375 L924,503.34375 L925,502.34375 L926,501.34375 L927,500.34375 L928,499.34375 L928,498.34375 L928,497.34375 L929,495.34375 L930,493.34375 L930,492.34375 L930,491.34375 L931,489.34375 Q932,487.34375 933,485.34375 L934,483.34375 L934,482.34375 L934,481.34375 L934,480.34375 L934,479.34375 L934,477.34375 L934,475.34375 L934,474.34375 L934,473.34375 L935,473.34375 L936,473.34375 L936,472.34375 L936,471.34375 L936,470.34375 L936,469.34375 L936,468.34375 L936,467.34375 L936,468.34375 L936,469.34375 L936,471.34375 L936,473.34375 L936,475.34375 L936,477.34375 L936,479.34375 L936,481.34375 L937,482.34375 L938,483.34375 L938,484.34375 L938,485.34375 L938,487.34375 L938,489.34375 L938,490.34375 L938,491.34375 L939,492.34375 L940,493.34375 L941,494.34375 L942,495.34375 L942,496.34375 L942,497.34375 L942,499.34375 L942,501.34375 L943,502.34375 L944,503.34375 L945,505.34375 L946,507.34375 L947,508.34375 L948,509.34375 L949,510.34375 L950,511.34375 L950,513.34375 L950,515.34375 L951,515.34375 L952,515.34375 L952,516.34375 L952,517.34375 L952,518.34375 L952,519.34375 L953,518.34375 Q954,517.34375 956,514.34375 Q958,511.34375 959,507.34375 Q960,503.34375 962,499.34375 Q964,495.34375 965,492.34375 Q966,489.34375 967,487.34375 Q968,485.34375 970,482.34375 Q972,479.34375 972,477.34375 L972,475.34375 L973,473.34375 Q974,471.34375 975,469.34375 L976,467.34375 L976,465.34375 L976,463.34375 L977,462.34375 L978,461.34375 L978,460.34375 L978,459.34375 " fill="none" stroke="rgb(255, 204, 204)" stroke-opacity="1" stroke-width="8.842105263157896" stroke-linecap="round" stroke-linejoin="round" /><path d="M1000,507.34375 L1001,507.34375 L1002,507.34375 L1004,506.34375 Q1006,505.34375 1008,503.34375 Q1010,501.34375 1012,500.34375 Q1014,499.34375 1016,497.34375 Q1018,495.34375 1019,493.34375 L1020,491.34375 L1021,490.34375 L1022,489.34375 L1022,488.34375 L1022,487.34375 L1023,486.34375 L1024,485.34375 L1025,484.34375 L1026,483.34375 L1026,481.34375 L1026,479.34375 L1026,478.34375 L1026,477.34375 L1026,475.34375 L1026,473.34375 L1026,472.34375 L1026,471.34375 L1025,470.34375 L1024,469.34375 L1023,467.34375 L1022,465.34375 L1022,463.34375 L1022,461.34375 L1020,460.34375 L1018,459.34375 L1018,458.34375 L1018,457.34375 L1018,456.34375 L1018,455.34375 L1017,455.34375 L1016,455.34375 L1015,457.34375 L1014,459.34375 L1013,460.34375 L1012,461.34375 L1011,462.34375 L1010,463.34375 L1010,464.34375 L1010,465.34375 L1010,466.34375 L1010,467.34375 L1010,469.34375 L1010,471.34375 L1010,473.34375 L1010,475.34375 L1010,476.34375 L1010,477.34375 L1010,480.34375 L1010,483.34375 L1010,484.34375 L1010,485.34375 L1010,486.34375 L1010,487.34375 L1010,488.34375 L1010,489.34375 L1010,490.34375 L1010,491.34375 L1010,493.34375 L1010,495.34375 L1010,496.34375 L1010,497.34375 L1010,498.34375 L1010,499.34375 L1010,500.34375 L1010,501.34375 L1010,502.34375 L1010,503.34375 L1011,503.34375 L1012,503.34375 L1012,505.34375 L1012,507.34375 L1012,508.34375 L1012,509.34375 L1012,510.34375 L1012,511.34375 L1013,512.34375 L1014,513.34375 L1014,514.34375 L1014,515.34375 L1014,516.34375 L1014,517.34375 L1015,518.34375 L1016,519.34375 L1017,520.34375 L1018,521.34375 L1019,521.34375 L1020,521.34375 L1020,522.34375 L1020,523.34375 L1021,523.34375 L1022,523.34375 L1023,523.34375 L1024,523.34375 L1025,523.34375 L1026,523.34375 L1027,522.34375 L1028,521.34375 L1029,520.34375 L1030,519.34375 L1031,518.34375 Q1032,517.34375 1034,515.34375 Q1036,513.34375 1037,511.34375 L1038,509.34375 L1039,508.34375 L1040,507.34375 L1041,507.34375 L1042,507.34375 " fill="none" stroke="rgb(255, 204, 204)" stroke-opacity="1" stroke-width="8.842105263157896" stroke-linecap="round" stroke-linejoin="round" /></svg>